[Header]
FileType HTR
DataType HTRS
FileVersion 1
NumSegments 28
NumFrames 4
DataFrameRate 24
EulerRotationOrder ZYX
CalibrationUnits mm
RotationUnits Degrees
GlobalAxisofGravity Y
BoneLengthAxis Y
ScaleFactor 1.0
[SegmentNames&Hierarchy]
waist	GLOBAL
chest	waist
head	chest
joint2	chest
right_shoulder1	joint2
right_elbow1	right_shoulder1
right_wrist1	right_elbow1
right_hand1	right_wrist1
right_finger3	right_hand1
right_finger4	right_hand1
right_finger5	right_hand1
joint3	chest
right_shoulder2	joint3
right_elbow2	right_shoulder2
right_wrist2	right_elbow2
right_hand2	right_wrist2
right_finger6	right_hand2
right_finger7	right_hand2
right_finger8	right_hand2
Center_pelvis	waist
left_pelvs	Center_pelvis
left_leg	left_pelvs
left_knee	left_leg
left_foot	left_knee
right_pelvis	Center_pelvis
right_leg	right_pelvis
right_knee	right_leg
right_foot	right_knee
[BasePosition]
waist	0	0	0	179.9999991	0	91.33221985	1
chest	0	0	0	-2.307808268e-010	-1.984983424e-008	1.332219854	1
head	0	0	0	180	-1.481061187e-024	90	1
joint2	0	0	0	4.615476202e-010	-1.707085745e-006	90	1
right_shoulder1	0	0	0	1.916575325e-008	-1.983803253e-008	-88.02506599	1
right_elbow1	0	0	0	-180	-1.948815659e-008	-12.92899665	1
right_wrist1	0	0	0	3.256551172e-010	1.942478841e-008	1.920938916	1
right_hand1	0	0	0	136.2194085	85.17676588	-133.4832578	1
right_finger3	0	0	0	154.4596717	79.84057755	147.6247455	1
right_finger4	0	0	0	154.4596717	79.84057755	147.6247455	1
right_finger5	0	0	0	154.4596717	79.84057755	147.6247455	1
joint3	0	0	0	-180	-1.89575832e-022	90	1
right_shoulder2	0	0	0	6.774897105e-015	-7.012540931e-015	-88.02506599	1
right_elbow2	0	0	0	-180	-6.888863384e-015	-12.92899665	1
right_wrist2	0	0	0	-1.240805042e-012	-7.401196581e-011	1.920938916	1
right_hand2	0	0	0	136.2194085	85.17676588	-133.4832578	1
right_finger6	0	0	0	154.4596717	79.84057755	147.6247455	1
right_finger7	0	0	0	154.4596717	79.84057755	147.6247455	1
right_finger8	0	0	0	154.4596717	79.84057755	147.6247455	1
Center_pelvis	0	0	0	-180	-8.537716493e-007	89.87586122	1
left_pelvs	0	0	0	0	0	-1.456358634	1
left_leg	0	0	0	179.9999991	0	88.69804733	1
left_knee	0	0	0	-180	-7.863991589e-009	-2.076172838	1
left_foot	0	0	0	179.9999985	-3.055580289e-010	-90.77422016	1
right_pelvis	0	0	0	0	0	-2.39554958	1
right_leg	0	0	0	0	0	-87.75885638	1
right_knee	0	0	0	179.9999991	3.702652968e-022	-2.076172838	1
right_foot	0	0	0	180	-7.405305937e-025	-90.77422016	1
[waist]
10	0	-14.36047745	-4.826733589	1.784538984	-6.817079544	1.564232826	1.0
11	0	-14.884758	-4.777446747	1.793063402	-8.894880295	1.498831749	1.0
12	0	-15.05551147	-4.755037308	1.803471446	-10.85575104	1.436222672	1.0
13	0	-14.18245888	-5.318602562	1.812650084	-12.50845051	1.384019971	1.0
[chest]
10	19.32523537	-0.4706298113	-11.37144661	-0.5710389614	52.94447708	-3.084358215	1.0
11	19.32523537	-0.4706298113	-11.37144661	-0.5286642313	49.48780823	-3.030315161	1.0
12	19.32523537	-0.4706298113	-11.37144661	-0.4905828834	45.14282608	-2.976331234	1.0
13	19.32523537	-0.4706298113	-11.37144661	-0.4707046151	38.33899689	-2.944702387	1.0
[head]
10	20.62318993	0.1433748305	1.492195129	-7.707155228	2.404664278	-1.774801493	1.0
11	20.62318993	0.1433748305	1.492195129	-7.636360168	2.404664278	-1.774801493	1.0
12	20.62318993	0.1433748305	1.492195129	-7.344624043	2.404664278	-1.774801493	1.0
13	20.62318993	0.1433748305	1.492195129	-6.611152172	2.404664278	-1.774801493	1.0
[joint2]
10	-1.657010078	17.01290512	0.01287616603	30.05904961	5.155200958	1.073374033	1.0
11	-1.657010078	17.01290512	0.01287616603	59.36455917	-24.67526436	10.71791458	1.0
12	-1.657010078	17.01290512	0.01287616603	72.68917084	-38.23856354	19.10118675	1.0
13	-1.657010078	17.01290512	0.01287616603	63.19137955	-21.57838821	28.32636642	1.0
[right_shoulder1]
10	14.91590023	0.6211000085	0.9477797747	2.0954566	-14.45982265	-62.36769867	1.0
11	14.91590023	0.6211000085	0.9477797747	2.074368715	-12.2271719	-62.2833786	1.0
12	14.91590023	0.6211000085	0.9477797747	2.064780474	-11.21203232	-62.24504089	1.0
13	14.91590023	0.6211000085	0.9477797747	3.149392843	-13.1769619	-65.94600677	1.0
[right_elbow1]
10	-13.64346027	1.083028078	-0.5017899871	-6.6788311	44.19680405	34.08111572	1.0
11	-13.64346027	1.083028078	-0.5017899871	-7.148189545	44.08111572	32.66658401	1.0
12	-13.64346027	1.083028078	-0.5017899871	-8.332277298	43.85582733	30.48715782	1.0
13	-13.64346027	1.083028078	-0.5017899871	-10.73222733	43.22786713	26.49077797	1.0
[right_wrist1]
10	-11.07325459	0.004849368241	0.6145500541	-4.80606842	31.7951355	0.3079994023	1.0
11	-11.07325459	0.004849368241	0.6145500541	-4.80606842	31.7951355	0.3079994023	1.0
12	-11.07325459	0.004849368241	0.6145500541	-4.80606842	31.7951355	0.3079994023	1.0
13	-11.07325459	0.004849368241	0.6145500541	-4.80606842	31.7951355	0.3079994023	1.0
[right_hand1]
10	-7.870647907	-0.6475095749	0.1588415354	13.610322	25.63029671	20.05943108	1.0
11	-7.870647907	-0.6475095749	0.1588415354	13.610322	25.63029671	20.05943108	1.0
12	-7.870647907	-0.6475095749	0.1588415354	13.610322	25.63029671	20.05943108	1.0
13	-7.870647907	-0.6475095749	0.1588415354	13.610322	25.63029671	20.05943108	1.0
[right_finger3]
10	10.07661057	3.347557783	-1.489186764	-84.28975677	13.1826582	87.76701355	1.0
11	10.07661057	3.347557783	-1.489186764	-84.28975677	13.1826582	87.76701355	1.0
12	10.07661057	3.347557783	-1.489186764	-84.28975677	13.1826582	87.76701355	1.0
13	10.07661057	3.347557783	-1.489186764	-84.28975677	13.1826582	87.76701355	1.0
[right_finger4]
10	-1.201135993	3.376283169	11.27149582	-190.2575378	16.2514534	124.4265747	1.0
11	-1.201135993	3.376283169	11.27149582	-190.2575378	16.2514534	124.4265747	1.0
12	-1.201135993	3.376283169	11.27149582	-190.2575378	16.2514534	124.4265747	1.0
13	-1.201135993	3.376283169	11.27149582	-190.2575378	16.2514534	124.4265747	1.0
[right_finger5]
10	-6.853637218	4.493112087	-5.936321735	34.39846039	4.028532028	79.4876709	1.0
11	-6.853637218	4.493112087	-5.936321735	34.39846039	4.028532028	79.4876709	1.0
12	-6.853637218	4.493112087	-5.936321735	34.39846039	4.028532028	79.4876709	1.0
13	-6.853637218	4.493112087	-5.936321735	34.39846039	4.028532028	79.4876709	1.0
[joint3]
10	-1.657010078	-17.01289368	0.01287565939	30.21719933	0.9685726166	1.680088043	1.0
11	-1.657010078	-17.01289368	0.01287565939	55.60896301	-26.85756874	10.83493423	1.0
12	-1.657010078	-17.01289368	0.01287565939	66.67407227	-39.50954437	17.73029518	1.0
13	-1.657010078	-17.01289368	0.01287565939	50.3103447	-24.49202728	20.32680893	1.0
[right_shoulder2]
10	-14.91590023	-0.6211000085	-0.9477797747	1.007395029	-1.390529156	-61.82646942	1.0
11	-14.91590023	-0.6211000085	-0.9477797747	1.004672527	1.518632412	-61.76350403	1.0
12	-14.91590023	-0.6211000085	-0.9477797747	1.003434539	2.743403912	-61.73487473	1.0
13	-14.91590023	-0.6211000085	-0.9477797747	1.618050218	-0.9224351645	-66.62677002	1.0
[right_elbow2]
10	13.06082726	-0.03707668185	1.483248353	16.12322998	45.80867767	51.87907791	1.0
11	13.06082726	-0.03707668185	1.483248353	15.05215073	46.10155487	50.38777924	1.0
12	13.06082726	-0.03707668185	1.483248353	13.95502949	46.37046432	48.86857224	1.0
13	13.06082726	-0.03707668185	1.483248353	12.59939194	46.64728165	47.00628662	1.0
[right_wrist2]
10	11.37348366	-5.659013271	-0.5602906942	5.478849411	36.2092514	-0.1693490595	1.0
11	11.37348366	-5.659013271	-0.5602906942	5.478849411	36.2092514	-0.1693490595	1.0
12	11.37348366	-5.659013271	-0.5602906942	5.478849411	36.2092514	-0.1693490595	1.0
13	11.37348366	-5.659013271	-0.5602906942	5.478849411	36.2092514	-0.1693490595	1.0
[right_hand2]
10	8.313048363	0.02588133886	-0.2132965624	18.71133041	22.36689186	29.74986458	1.0
11	8.313048363	0.02588133886	-0.2132965624	18.71133041	22.36689186	29.74986458	1.0
12	8.313048363	0.02588133886	-0.2132965624	18.71133041	22.36689186	29.74986458	1.0
13	8.313048363	0.02588133886	-0.2132965624	18.71133041	22.36689186	29.74986458	1.0
[right_finger6]
10	-10.07661057	-3.347557783	1.489186764	-83.6856308	28.25859642	89.45962524	1.0
11	-10.07661057	-3.347557783	1.489186764	-83.6856308	28.25859642	89.45962524	1.0
12	-10.07661057	-3.347557783	1.489186764	-83.6856308	28.25859642	89.45962524	1.0
13	-10.07661057	-3.347557783	1.489186764	-83.6856308	28.25859642	89.45962524	1.0
[right_finger7]
10	1.201135993	-3.376283169	-11.27149582	-196.815567	9.285179138	95.4122467	1.0
11	1.201135993	-3.376283169	-11.27149582	-196.815567	9.285179138	95.4122467	1.0
12	1.201135993	-3.376283169	-11.27149582	-196.815567	9.285179138	95.4122467	1.0
13	1.201135993	-3.376283169	-11.27149582	-196.815567	9.285179138	95.4122467	1.0
[right_finger8]
10	6.853637218	-4.493112087	5.936321735	33.30503464	-9.988982201	100.1356735	1.0
11	6.853637218	-4.493112087	5.936321735	33.30503464	-9.988982201	100.1356735	1.0
12	6.853637218	-4.493112087	5.936321735	33.30503464	-9.988982201	100.1356735	1.0
13	6.853637218	-4.493112087	5.936321735	33.30503464	-9.988982201	100.1356735	1.0
[Center_pelvis]
10	-5.616972446	-0.3766000271	2.04698658	-14.9065609	0	0	1.0
11	-5.616972446	-0.3766000271	2.04698658	-12.74951458	0	0	1.0
12	-5.616972446	-0.3766000271	2.04698658	-10.72672176	0	0	1.0
13	-5.616972446	-0.3766000271	2.04698658	-9.049115181	0	0	1.0
[left_pelvs]
10	11.08986378	-0.01586683653	-0.09214995801	-35.64182281	4.054233551	-3.979123592	1.0
11	11.08986378	-0.01586683653	-0.09214995801	-37.80049896	4.054233551	-3.979123592	1.0
12	11.08986378	-0.01586683653	-0.09214995801	-38.5715065	4.054233551	-3.979123592	1.0
13	11.08986378	-0.01586683653	-0.09214995801	-38.5715065	4.054233551	-3.979123592	1.0
[left_leg]
10	8.450808053e-008	-5.682914734	0.3641465604	2.953260422	27.19892311	-7.864528656	1.0
11	8.450808053e-008	-5.682914734	0.3641465604	2.976399899	29.50687027	-7.812247753	1.0
12	8.450808053e-008	-5.682914734	0.3641465604	2.979713678	30.46463013	-7.804760933	1.0
13	8.450808053e-008	-5.682914734	0.3641465604	2.979713678	30.46463013	-7.804760933	1.0
[left_knee]
10	-10.69747543	0.03457061574	-6.811455844e-009	0	-29.32766724	0	1.0
11	-10.69747543	0.03457061574	-6.811455844e-009	0	-29.32766724	0	1.0
12	-10.69747543	0.03457061574	-6.811455844e-009	0	-29.32766724	0	1.0
13	-10.69747543	0.03457061574	-6.793070551e-009	0	-29.32766724	0	1.0
[left_foot]
10	-14.54718971	-0.01193539705	1.933258442e-009	0	0	0	1.0
11	-14.54718971	-0.01193539705	1.933258442e-009	0	0	0	1.0
12	-14.54718971	-0.01193539705	1.933258442e-009	0	0	0	1.0
13	-14.54718971	-0.01193539705	1.933258442e-009	0	0	0	1.0
[right_pelvis]
10	-10.5868988	0.4465443194	0.2088862956	-44.26186752	5.838672638	-0.8834334612	1.0
11	-10.5868988	0.4465443194	0.2088862956	-45.61550903	5.838672638	-0.8834334612	1.0
12	-10.5868988	0.4465443194	0.2088862956	-45.90335464	5.838672638	-0.8834334612	1.0
13	-10.5868988	0.4465443194	0.2088862956	-45.90335464	5.838672638	-0.8834334612	1.0
[right_leg]
10	0.09169664979	-5.593489647	0.06310817599	0	32.82401276	0	1.0
11	0.09169664979	-5.593489647	0.06310817599	0	34.99489594	0	1.0
12	0.09169664979	-5.593489647	0.06310817599	0	35.8698616	0	1.0
13	0.09169664979	-5.593489647	0.06293782592	0	35.8698616	0	1.0
[right_knee]
10	10.69750977	-0.03459574655	-4.718447855e-015	18.3311882	-29.36153793	-5.617567539	1.0
11	10.69750977	-0.03459574655	-4.718447855e-015	18.3311882	-29.36153793	-5.617567539	1.0
12	10.69750977	-0.03459574655	-4.718447855e-015	18.3311882	-29.36153793	-5.617567539	1.0
13	10.69750977	-0.03459574655	-4.705712291e-015	18.3311882	-29.36153793	-5.617567539	1.0
[right_foot]
10	14.54718685	0.01191107463	1.774880243e-010	-25.66132164	14.70622921	-5.356805325	1.0
11	14.54718685	0.01191107463	1.774880243e-010	-25.66132164	14.70622921	-5.356805325	1.0
12	14.54718685	0.01191107463	1.774880243e-010	-25.66132164	14.70622921	-5.356805325	1.0
13	14.54718685	0.01191107463	1.77008963e-010	-25.66132164	14.70622921	-5.356805325	1.0
[EndOfFile]
